<svg width="1000" height="123" viewBox="0 0 1000 123" fill="none" xmlns="http://www.w3.org/2000/svg">
<g clip-path="url(#clip0_8_4)">
<path fill-rule="evenodd" clip-rule="evenodd" d="M443.317 0.0630123C444.909 0.0640123 446.57 -0.202988 448.103 0.355012C450.199 0.971012 452.406 1.00401 454.571 1.22201C458.345 1.51701 462.13 1.71901 465.919 1.64401C638.326 1.64701 808.562 1.64401 980.972 1.64701C985.571 1.69601 990.186 1.32601 994.692 0.360012C995.305 0.282012 995.998 0.00601235 996.615 0.326012C997.553 1.21101 997.147 2.64001 997.344 3.78001C997.869 8.55801 998.91 11.523 999.9 16.214C1000.06 17.182 1000.1 18.306 999.453 19.124C998.815 19.851 997.503 19.645 997.164 18.734C994.849 13.054 993.573 11.799 988.989 10.572C983.16 9.01201 977.073 8.82901 971.075 8.88001C938.109 8.90901 905.143 8.82901 872.178 8.84201C840.857 8.78901 809.535 8.82501 778.214 8.77401C744.272 8.78901 710.333 8.70301 676.394 8.73701C653.217 8.63901 630.038 8.75901 606.865 8.66401C568.867 8.68701 530.866 8.60101 492.869 8.62801C492.884 24.858 492.861 41.09 492.872 57.318C492.894 72.007 492.808 86.191 493.096 100.878C493.245 105.218 493.235 109.589 493.971 113.885C494.328 115.967 495.397 118.245 497.608 118.897C500.41 119.65 503.35 119.609 506.221 119.901C507.207 119.975 507.778 121.247 507.184 122.023C506.56 122.847 505.407 122.875 504.464 122.912C499.617 122.898 494.765 122.783 489.914 122.606C483.431 122.237 476.946 123.101 470.457 122.884C469.65 122.837 468.646 122.485 468.518 121.575C468.27 120.741 468.974 119.892 469.835 119.887C471.62 119.751 473.426 119.562 475.152 119.06C476.556 118.602 477.24 117.167 477.649 115.872C478.612 112.59 478.763 109.158 478.905 105.764C479.161 98.955 479.212 92.638 479.234 85.829C479.308 60.091 479.249 34.354 479.266 8.62101C471.667 8.73601 466.242 8.80201 458.644 8.92101C455.374 9.02501 452.015 9.11701 448.913 10.254C447.386 10.808 446.042 11.818 445.119 13.144C443.963 14.773 442.998 16.528 442.206 18.354C441.889 19.193 440.982 19.972 440.043 19.643C439.126 19.292 439.124 18.151 439.221 17.344C439.697 14.238 440.462 11.185 441.143 8.11901C441.802 5.41701 442.22 2.64001 443.317 0.0630123Z" fill="#6A7071"/>
<path fill-rule="evenodd" clip-rule="evenodd" d="M54.073 4.8C62.643 4.125 71.28 4.478 79.769 5.866C84.069 6.471 88.277 7.661 92.608 8.046C94.3 8.246 95.996 8.353 97.694 8.475C98.547 8.55 99.588 8.855 99.884 9.801C100.049 10.734 99.876 11.683 99.793 12.614C99.07 19.012 98.964 25.466 98.932 31.901C98.891 32.73 98.896 33.64 98.449 34.366C97.937 35.163 96.525 35.281 96.126 34.313C95.544 33.036 95.684 31.565 95.385 30.21C94.698 26.592 93.374 22.877 90.655 20.359C87.501 17.343 83.514 15.46 79.487 14.046C71.351 11.299 62.685 10.64 54.181 11.059C50.389 11.222 46.621 11.823 42.946 12.78C37.098 14.394 31.642 17.414 26.99 21.4C20.662 27.076 16.995 35.284 15.154 43.598C13.174 52.867 13.099 62.605 15.22 71.852C17.109 80.065 20.545 87.928 25.457 94.686C28.05 98.318 31.393 101.298 34.87 103.991C39.597 107.572 44.889 110.359 50.489 112.142C56.776 114.122 63.405 114.871 69.961 114.489C73.965 114.143 78.037 113.729 81.812 112.214C82.965 111.675 84.192 111.099 84.967 110.021C85.759 108.881 85.898 107.43 85.901 106.067C85.898 97.522 85.901 88.97 85.898 80.425C85.85 77.739 85.871 75.037 85.445 72.378C85.184 70.818 84.664 69.144 83.327 68.218C80.896 66.492 77.849 66.291 74.993 66.217C74.147 66.265 73.087 65.71 73.216 64.696C73.239 63.63 74.403 63.216 75.273 63.208C79.275 63.12 83.279 63.296 87.28 63.413C89.593 63.454 91.905 63.691 94.221 63.547C98.216 63.37 102.21 63.221 106.206 63.151C107.062 63.158 107.956 63.133 108.764 63.472C109.627 63.829 109.888 65.223 109.11 65.806C108.361 66.4 107.347 66.19 106.472 66.352C104.68 66.61 102.664 66.79 101.311 68.187C99.914 69.675 99.666 71.852 99.458 73.819C99.043 79.597 99.114 85.389 99.104 91.18C99.104 96.605 99.101 102.025 99.104 107.45C99.077 109.054 99.123 110.668 98.926 112.264C98.802 113.037 98.629 113.878 98.039 114.427C97.295 115.123 96.345 115.506 95.447 115.94C92.441 117.453 89.235 118.49 86.009 119.378C73.532 122.616 60.396 122.663 47.77 120.327C37.304 118.33 27.122 114.048 18.819 107.076C14.333 103.407 10.722 98.69 7.85299 93.597C3.14499 85.167 0.428989 75.558 0.0519886 65.828C-0.327011 55.983 1.36599 46.004 5.29799 37.006C8.55799 29.541 13.396 22.766 19.567 17.598C27.577 10.848 37.61 7.028 47.778 5.556C49.858 5.156 51.971 5.029 54.073 4.8Z" fill="#6A7071"/>
<path fill-rule="evenodd" clip-rule="evenodd" d="M715.363 22.968C712.24 23.135 709.137 23.651 706.116 24.445C698.962 26.329 692.38 30.324 687.379 35.77C682.082 41.537 678.515 48.786 676.732 56.383C674.762 64.792 675.488 73.737 678.289 81.871C680.733 88.975 685.063 95.486 690.924 100.226C696.572 104.79 703.533 107.591 710.705 108.595C722.255 110.208 734.522 107.753 743.993 100.776C753.389 93.851 759.341 82.814 760.852 71.322C761.886 63.44 761.347 55.216 758.482 47.755C756.669 43.03 753.901 38.661 750.361 35.039C746.632 31.226 742.067 28.259 737.12 26.279C730.243 23.522 722.735 22.573 715.363 22.968ZM716.791 28.038V103.686L716.153 103.598C715.333 103.493 714.515 103.357 713.709 103.184L713.261 103.089V28.324C714.447 28.163 715.598 28.073 716.791 28.038ZM709.107 101.848C701.087 98.843 694.876 92.804 691.169 85.134C687.189 76.894 685.909 67.532 686.567 58.462C687.117 50.882 689.941 43.861 694.794 38.008C698.517 33.521 703.552 30.599 709.161 29.133L709.87 28.948V102.133L709.107 101.848ZM727.849 29.594C731.962 30.968 735.624 33.224 738.727 36.25C743.623 41.031 747.33 47.341 748.954 53.994C750.633 60.886 750.808 68.077 749.985 75.101C749.272 81.133 747.475 87.145 744.051 92.21C740.205 97.894 734.431 101.495 727.798 103.027L727.106 103.19V29.345L727.849 29.594ZM723.192 103.747C722.382 103.814 721.568 103.855 720.754 103.862L720.181 103.869V28.097C721.093 28.073 722.795 28.268 723.711 28.535V103.707L723.192 103.747Z" fill="#6A7071"/>
<path fill-rule="evenodd" clip-rule="evenodd" d="M773.059 26.716C773.199 25.97 773.578 24.953 774.622 24.979C775.799 25.135 776.565 26.057 777.361 26.764C785.051 34.238 792.759 41.696 800.497 49.13C808.92 57.248 817.435 65.294 825.787 73.473C831.608 79.149 837.35 84.89 843.246 90.505C842.843 74.453 842.47 58.401 842.076 42.348C841.933 39.198 842.131 36 841.404 32.892C841.106 31.546 840.258 30.184 838.757 29.674C836.556 28.921 834.149 29.011 831.843 28.824C830.917 28.78 830.48 27.695 830.982 27.057C831.694 26.423 832.776 26.449 833.718 26.426C837.573 26.419 841.425 26.625 845.281 26.714C849.3 26.772 853.348 26.141 857.345 26.591C858.701 26.755 858.593 28.556 857.328 28.756C855.511 28.98 853.544 28.941 851.946 29.863C850.662 30.678 850.326 32.162 850.166 33.473C849.773 36.979 850.062 40.509 849.933 44.027C849.906 58.467 849.818 72.908 849.801 87.353C849.709 92.839 849.845 98.332 849.664 103.819C849.539 104.803 849.664 105.956 848.912 106.766C848.132 107.247 847.166 106.803 846.525 106.349C844.724 105.08 843.117 103.616 841.493 102.178C832.937 94.633 824.65 86.851 816.353 79.086C803.762 67.238 791.515 55.104 779.294 42.95C779.762 57.939 780.199 72.921 780.656 87.908C780.768 91.076 780.755 94.254 781.213 97.4C781.59 99.492 782.037 102.214 784.58 103.059C786.706 103.683 788.968 103.649 791.172 103.862C792.169 104.008 792.423 105.385 791.562 105.833C790.41 106.45 788.992 106.182 787.724 106.24C783.139 106.294 778.565 105.741 773.991 106.039C771.271 106.138 768.552 106.261 765.836 106.243C765.104 106.226 764.28 106.192 763.761 105.687C763.127 105.039 763.588 103.838 764.602 103.832C766.552 103.649 768.637 103.711 770.415 102.842C771.527 102.123 771.883 100.838 772.161 99.699C772.615 97.284 772.619 94.83 772.69 92.387C772.741 72.452 772.764 52.52 772.815 32.583C772.845 30.631 772.703 28.656 773.059 26.716Z" fill="#6A7071"/>
<path fill-rule="evenodd" clip-rule="evenodd" d="M950.638 23.646C956.327 23.063 962.133 23.463 967.707 24.608C969.081 24.92 970.515 24.9 971.908 25.123C972.749 25.347 972.759 26.233 972.698 26.87C972.318 30.708 972.274 34.562 972.226 38.412C972.159 39.221 972.074 40.423 970.949 40.596C970.094 40.64 969.46 40.013 969.405 39.308C969.1 37.472 968.731 35.622 967.941 33.894C966.73 31.635 964.211 30.2 961.657 29.337C958.423 28.267 954.903 28.024 951.485 28.206C948.05 28.499 944.571 29.659 942.208 31.953C937.8 36.125 937.682 43.068 941.469 47.602C944.51 51.272 948.559 54.156 952.458 57.076C957.623 60.728 962.953 64.273 967.27 68.741C970.699 72.207 973.475 76.356 974.221 80.975C975.534 87.17 973.988 93.829 969.796 98.953C966.028 103.667 960.03 106.724 953.693 107.837C946.717 109.066 939.377 108.767 932.581 106.905C931.049 106.359 929.438 105.922 928.048 105.125C926.996 104.511 926.854 103.32 926.83 102.307C926.786 98.547 926.979 94.784 927.326 91.033C927.454 89.982 927.305 88.789 928.057 87.893C928.654 87.117 930.316 87.527 930.336 88.49C930.458 89.534 930.38 90.592 930.525 91.643C930.857 94.309 931.976 96.96 934.045 98.96C936.412 101.317 939.851 102.609 943.303 103.172C948.606 104.101 954.532 103.572 958.95 100.609C961.888 98.659 963.881 95.699 964.62 92.532C965.613 87.758 964.214 82.603 960.646 78.881C952.976 70.783 941.894 65.747 934.879 57.101C931.365 53.008 929.531 47.87 929.751 42.737C929.792 37.787 931.925 32.788 936.024 29.359C939.96 26.019 945.283 24.223 950.638 23.646Z" fill="#6A7071"/>
<path fill-rule="evenodd" clip-rule="evenodd" d="M911.128 25.559C911.995 25.422 912.786 24.862 913.701 24.998C914.786 25.622 914.346 26.934 914.144 27.858C913.144 31.248 913.358 34.769 912.873 38.217C912.72 38.917 912.449 39.89 911.485 39.987C910.58 40.096 909.936 39.297 909.939 38.581C909.776 36.638 909.783 34.31 907.905 32.959C905.927 31.728 903.398 31.521 901.065 31.247C895.555 30.947 890.028 31.032 884.514 30.904C884.318 38.364 884.497 45.834 884.436 53.297C884.46 55.93 884.385 58.57 884.474 61.203C890.872 61.195 897.278 61.252 903.672 60.996C905.558 60.798 907.837 60.886 909.213 59.521C909.807 59.028 910.295 58.284 911.18 58.165C911.868 58.04 912.408 58.659 912.435 59.214C912.482 59.872 912.313 60.52 912.194 61.166C911.309 65.17 911.212 69.268 910.936 73.324C910.861 74.07 910.153 74.942 909.193 74.605C907.909 74.247 908.281 72.846 908.145 71.947C908.034 70.568 907.695 69.065 906.555 68.038C905.087 66.861 903.022 66.61 901.122 66.475C895.578 66.17 890.027 66.062 884.476 65.997C884.402 74.216 884.439 82.438 884.398 90.658C884.554 93.588 884.1 96.796 885.931 99.413C887.663 101.34 890.743 101.459 893.316 101.679C897.754 101.818 902.238 101.923 906.642 101.292C908.731 100.974 910.908 100.234 912.21 98.688C913.397 97.256 913.908 95.503 914.277 93.792C914.44 93.12 914.536 92.388 915.041 91.824C915.458 91.296 916.529 91.248 916.926 91.832C917.415 92.489 917.282 93.33 917.266 94.08C916.963 96.915 916.55 99.743 916.028 102.554C915.757 103.714 915.507 104.944 914.652 105.898C913.722 106.861 912.173 106.925 910.843 106.962C901.329 107.026 891.814 106.854 882.313 106.467C877.57 106.209 872.829 106.663 868.088 106.656C867.01 106.612 865.772 106.836 864.881 106.195C864.093 105.652 864.489 104.378 865.497 104.276C867.064 104.039 868.728 104.124 870.217 103.55C871.34 103.048 871.733 101.902 872.035 100.912C872.824 98.009 872.842 95.004 873.008 92.041C873.229 84.31 873.117 76.572 873.144 68.841C873.137 59.787 873.151 50.734 873.141 41.68C873.107 38.828 873.114 35.975 872.811 33.135C872.653 31.748 872.164 30.194 870.716 29.422C868.682 28.323 866.209 28.376 863.917 28.229C863.1 28.2 862.452 27.462 862.721 26.776C862.968 26.015 864.026 25.817 864.826 25.818C869.468 25.774 874.106 25.995 878.749 26.093C887.605 26.088 896.459 26.13 905.312 26.032C907.255 25.974 909.222 25.918 911.128 25.559Z" fill="#6A7071"/>
<path fill-rule="evenodd" clip-rule="evenodd" d="M347.805 24.945C348.447 24.748 349.39 24.263 349.869 24.977C350.438 26.052 349.859 27.252 349.665 28.351C348.924 31.499 349.097 34.745 348.672 37.929C348.543 38.707 348.194 39.782 347.154 39.782C346.154 39.719 345.767 38.714 345.801 37.919C345.722 36.002 345.525 33.679 343.65 32.493C341.602 31.318 339.11 31.132 336.77 30.893C331.74 30.678 326.703 30.671 321.672 30.603C321.553 40.769 321.641 50.939 321.628 61.107C327.013 61.142 332.398 61.117 337.777 60.995C339.858 60.89 342.018 60.914 343.991 60.229C345.358 59.783 345.866 57.95 347.462 58.047C348.609 58.544 348.207 59.917 348.066 60.826C347.155 65.025 347.134 69.324 346.781 73.576C346.718 74.729 344.943 75.149 344.406 74.078C343.929 72.634 344.337 71.026 343.643 69.608C343.144 68.018 341.481 67.069 339.815 66.767C337.38 66.302 334.877 66.346 332.411 66.217C328.808 66.126 325.204 65.963 321.603 66.028C321.671 74.342 321.549 82.664 321.578 90.981C321.649 93.633 321.431 96.437 322.594 98.925C323.335 100.601 325.319 101.333 327.112 101.614C330.942 102.2 334.85 102.042 338.716 101.957C341.498 101.726 344.553 101.644 346.868 100.003C348.462 98.892 349.177 97.084 349.663 95.358C349.963 94.334 350.005 93.242 350.49 92.265C350.838 91.587 352.101 91.292 352.538 92.041C353.041 92.848 352.867 93.828 352.811 94.713C352.485 97.575 352.101 100.437 351.588 103.272C351.344 104.408 351.034 105.639 350.105 106.473C349.033 107.344 347.512 107.289 346.182 107.347C337.741 107.374 329.297 107.225 320.868 106.853C315.449 106.487 310.031 107.073 304.609 106.985C303.78 107.003 302.611 106.693 302.586 105.764C302.464 105.17 302.991 104.628 303.618 104.567C305.302 104.29 307.296 104.516 308.679 103.418C309.984 101.872 310.068 99.794 310.368 97.929C310.915 91.658 310.802 85.363 310.837 79.075C310.823 66.034 310.849 52.998 310.827 39.96C310.756 37.403 310.786 34.835 310.446 32.293C310.253 30.925 309.554 29.494 308.135 28.89C306.219 27.98 304.015 28.057 301.933 27.89C300.987 27.828 300.494 26.64 301.15 26.015C301.711 25.451 302.593 25.432 303.364 25.424C307.635 25.415 311.906 25.615 316.178 25.72C324.523 25.714 332.871 25.754 341.216 25.659C343.413 25.553 345.695 25.611 347.805 24.945Z" fill="#6A7071"/>
<path fill-rule="evenodd" clip-rule="evenodd" d="M509.44 26.147C509.542 25.289 510.549 24.994 511.301 24.998C515.598 24.939 519.887 25.191 524.183 25.276C527.683 25.202 531.182 24.984 534.685 24.968C535.316 24.995 536.031 25.022 536.55 25.456C537.177 25.934 536.99 27.127 536.194 27.338C534.373 27.774 532.186 27.453 530.724 28.821C529.253 30.418 529.402 32.747 529.24 34.752C528.995 42.805 529.107 50.867 529.084 58.927C544.576 58.932 560.065 58.93 575.556 58.93C575.529 51.069 575.644 43.207 575.427 35.352C575.22 33.216 575.498 30.664 573.829 29.011C572.039 27.554 569.558 27.602 567.363 27.473C566.637 27.498 565.982 26.868 566.078 26.147C566.21 25.303 567.19 24.998 567.946 24.998C572.039 24.981 576.129 25.176 580.217 25.279C583.821 25.242 587.419 25.001 591.028 24.981C591.821 24.993 592.76 24.969 593.343 25.61C593.849 26.219 593.465 27.263 592.679 27.411C590.939 27.711 588.925 27.521 587.491 28.71C586.074 30.03 586.077 32.106 585.928 33.884C585.614 41.153 585.782 48.431 585.735 55.704C585.735 64.217 585.735 72.728 585.735 81.239C585.816 87.177 585.691 93.135 586.339 99.038C586.543 100.751 586.933 102.832 588.696 103.65C590.957 104.507 593.49 104.1 595.789 104.697C596.403 105.06 596.443 105.999 595.922 106.461C595.298 106.983 594.423 106.956 593.66 106.977C590.341 106.936 587.02 106.872 583.701 106.752C579.049 106.454 574.393 107.048 569.737 106.97C569.073 106.956 568.316 106.837 567.91 106.275C567.482 105.665 567.791 104.705 568.555 104.548C569.975 104.312 571.47 104.385 572.824 103.826C573.872 103.347 574.248 102.168 574.54 101.157C575.259 98.16 575.279 95.053 575.425 91.989C575.639 82.664 575.544 73.333 575.554 64.002C560.065 63.981 544.578 63.985 529.089 63.999C529.086 72.811 529.034 81.623 529.194 90.436C529.293 93.685 529.35 96.954 529.869 100.171C530.099 101.609 530.77 103.202 532.272 103.741C534.375 104.379 536.613 104.243 538.773 104.527C539.832 104.683 539.936 106.288 538.976 106.667C537.614 107.206 536.107 106.889 534.683 106.936C529.822 106.963 524.969 106.455 520.113 106.79C517.584 106.848 515.05 107.067 512.528 106.922C511.636 106.908 510.768 106.061 511.165 105.165C511.549 104.314 512.641 104.487 513.41 104.379C514.83 104.224 516.672 104.142 517.343 102.656C518.297 100.547 518.414 98.187 518.601 95.916C519.052 87.683 518.86 79.437 518.904 71.196C518.904 62.684 518.904 54.172 518.907 45.661C518.881 41.454 518.968 37.243 518.667 33.045C518.521 31.513 518.273 29.707 516.883 28.756C515.072 27.586 512.818 27.562 510.736 27.464C510.024 27.473 509.312 26.89 509.44 26.147Z" fill="#6A7071"/>
<path fill-rule="evenodd" clip-rule="evenodd" d="M600.254 25.783C600.698 25.074 601.689 24.981 602.489 24.976C606.72 25.01 610.953 25.141 615.18 25.286C622.789 25.228 630.446 24.511 638.025 25.495C642.711 26.086 647.37 27.534 651.151 30.24C655.406 33.541 658.257 38.434 658.668 43.593C658.902 48.727 657.535 53.908 654.769 58.357C652.23 62.582 648.75 66.248 644.983 69.56C651.874 77.773 658.652 86.081 666.017 93.937C669.109 97.222 672.469 100.437 676.705 102.438C679.813 103.957 683.351 104.435 686.822 104.475C687.9 104.357 688.874 105.665 687.948 106.419C686.727 107.204 685.12 106.887 683.723 106.961C678.389 106.846 672.95 107.357 667.715 106.16C662.425 104.791 658.566 100.912 655.23 97.077C648.844 89.565 642.768 81.831 636.733 74.076C636.217 73.425 635.648 72.563 634.64 72.673C629.916 72.625 625.19 72.483 620.466 72.499C620.426 79.162 620.449 85.825 620.618 92.485C620.73 95.146 620.795 97.832 621.334 100.457C621.626 101.823 622.372 103.325 623.918 103.78C626.166 104.389 628.55 104.238 630.85 104.573C631.809 104.831 631.883 106.194 631.012 106.607C629.933 107.123 628.673 106.926 627.516 106.947C623.396 106.913 619.287 106.77 615.173 106.662C611.467 106.777 607.761 106.951 604.058 106.961C603.468 106.944 602.844 106.906 602.372 106.567C601.576 106.132 601.715 104.865 602.597 104.593C604.279 104.207 606.201 104.491 607.721 103.583C609.022 102.467 609.175 100.683 609.487 99.161C610.178 93.975 610.006 88.737 610.132 83.525C610.149 70.332 610.135 57.132 610.139 43.939C610.047 40.189 610.19 36.435 609.854 32.695C609.715 31.26 609.36 29.63 607.996 28.763C606.023 27.525 603.544 27.598 601.275 27.436C600.414 27.405 599.854 26.479 600.254 25.783ZM622.122 29.806C621.379 29.881 620.328 30.088 620.464 30.995C620.42 42.39 620.471 53.791 620.443 65.188C620.433 65.762 620.436 66.522 621.131 66.773C623.508 67.756 626.152 67.929 628.713 68.19C632.548 68.394 636.681 68.678 640.198 66.935C643.974 64.99 646.04 61.135 647.06 57.378C648.338 52.226 648.27 46.738 646.646 41.656C645.236 37.173 641.958 33.043 637.294 31.102C632.583 29.018 627.174 29.229 622.122 29.806Z" fill="#6A7071"/>
<path fill-rule="evenodd" clip-rule="evenodd" d="M145.489 24.801C145.938 23.962 147.191 23.933 147.727 24.704C148.61 25.898 149.005 27.364 149.585 28.717C156.222 46.109 162.749 63.546 169.481 80.903C171.49 85.979 173.301 91.146 175.6 96.103C176.912 98.708 178.423 101.427 180.949 103.007C182.563 103.896 184.414 104.276 186.237 104.339C186.815 104.397 187.498 104.329 187.961 104.771C188.397 105.262 188.235 106.13 187.666 106.453C186.787 106.934 185.74 106.853 184.776 106.888C179.249 106.847 173.716 106.836 168.194 106.616C167.296 106.514 166.203 106.609 165.537 105.874C165.162 105.084 165.827 104.439 166.485 104.142C167.426 103.63 166.968 102.358 166.685 101.565C163.409 92.912 160.273 84.204 156.921 75.582C149.351 75.585 141.783 75.568 134.216 75.592C133.599 75.47 133.451 76.111 133.292 76.552C131.239 82.699 129.168 88.843 127.123 94.993C126.37 97.279 125.653 99.653 125.748 102.088C125.978 103.716 127.843 104.302 129.254 104.332C130.091 104.427 131.331 104.17 131.748 105.14C132.094 106.14 131.028 106.876 130.141 106.856C127.142 106.948 124.148 106.587 121.147 106.585C117.359 106.687 113.572 106.88 109.781 106.891C108.906 106.88 107.852 106.877 107.261 106.111C106.83 105.338 107.469 104.368 108.326 104.401C110.708 104.246 113.343 104.236 115.281 102.598C117.927 100.408 119.046 96.996 120.22 93.876C128.027 72.28 135.848 50.685 143.647 29.084C144.195 27.63 144.639 26.11 145.489 24.801ZM141.323 52.129C139.33 58.317 137.334 64.505 135.34 70.695C141.954 70.698 148.569 70.698 155.183 70.695C151.755 60.885 148.386 51.052 144.895 41.266C143.588 44.846 142.527 48.513 141.323 52.129Z" fill="#6A7071"/>
<path fill-rule="evenodd" clip-rule="evenodd" d="M207.104 27.371C207.245 26.342 207.489 24.967 208.657 24.609C209.878 24.461 210.586 25.601 211.022 26.531C221.934 48.423 232.817 70.326 243.732 92.22C254.327 70.162 264.871 48.081 275.47 26.029C275.875 25.039 277.176 24.071 278.189 24.925C278.993 25.82 278.984 27.112 279.166 28.233C281.419 48.383 283.672 68.534 285.925 88.684C286.383 92.102 286.454 95.604 287.541 98.907C288.175 100.853 289.374 102.809 291.376 103.644C293.821 104.593 296.489 104.766 299.093 104.858C300.003 104.763 300.539 105.922 299.949 106.563C299.132 107.439 297.795 107.33 296.692 107.346C290.68 107.198 284.66 107.096 278.66 106.648C277.664 106.486 276.202 106.512 275.757 105.434C275.404 104.655 276.181 104.084 276.819 103.806C277.127 102.308 276.878 100.782 276.75 99.284C275.093 81.93 273.444 64.575 271.789 47.219C262.535 66.331 253.368 85.483 244.096 104.587C243.52 105.55 243.069 107.097 241.702 107.137C240.52 107.076 240.037 105.815 239.486 104.988C235.276 97.376 231.417 89.59 227.418 81.876C222.964 73.188 218.89 64.326 214.684 55.526C213.563 53.059 212.346 50.64 211.249 48.166C210.054 61.596 208.886 75.03 207.699 88.461C207.348 92.842 206.758 97.22 206.951 101.621C206.98 102.709 207.722 103.726 208.772 104.097C210.372 104.657 212.088 104.703 213.761 104.893C214.567 104.944 214.968 105.935 214.534 106.565C214.086 107.172 213.271 107.329 212.555 107.342C208.055 107.437 203.557 106.847 199.059 107.138C196.954 107.192 194.85 107.403 192.744 107.328C191.92 107.307 190.772 107.04 190.667 106.08C190.499 105.422 191.2 104.892 191.818 104.88C193.615 104.683 195.713 104.887 197.161 103.625C198.594 102.163 198.849 100.037 199.095 98.118C201.77 74.538 204.436 50.955 207.104 27.371Z" fill="#6A7071"/>
<path fill-rule="evenodd" clip-rule="evenodd" d="M448.648 42.979C449.009 42.876 449.474 42.633 449.821 42.94C450.555 43.591 450.071 44.593 449.95 45.395C449.474 47.292 449.747 49.281 449.309 51.184C449.211 51.928 448.128 52.43 447.622 51.733C447.084 50.614 447.371 49.161 446.415 48.212C445.252 47.183 443.585 46.995 442.069 46.971C438.988 46.93 434.331 46.846 431.253 46.822C431.253 53.211 431.258 60.571 431.258 66.957C435.247 66.916 438.416 66.93 442.407 66.879C443.268 66.858 444.147 66.828 444.994 66.618C445.867 66.434 446.216 65.53 446.951 65.12C447.929 64.879 448.234 66.008 448 66.707C447.432 69.297 447.439 71.952 447.23 74.573C447.211 75.38 446.028 75.75 445.553 75.082C445.032 73.942 445.397 72.478 444.432 71.515C443.471 70.494 441.94 70.356 440.592 70.322C437.204 70.23 434.639 70.213 431.252 70.192C431.264 76.797 431.213 82.43 431.416 89.032C431.496 90.561 431.441 92.159 432.064 93.603C432.646 94.759 434.181 94.658 435.322 94.804C436.043 94.932 437.091 94.674 437.494 95.448C437.726 96.068 437.172 96.688 436.523 96.722C432.779 96.933 429.031 96.431 425.287 96.688C423.866 96.722 422.442 96.844 421.032 96.726C420.178 96.753 419.642 95.549 420.405 95.081C421.454 94.579 423.051 95.104 423.767 93.989C424.499 92.45 424.477 90.7 424.56 89.038C424.785 81.674 424.685 74.309 424.709 66.94C424.686 60.918 424.768 54.894 424.614 48.875C424.51 47.843 424.585 46.529 423.568 45.876C422.408 45.04 420.872 45.396 419.563 45.049C418.776 44.735 419.003 43.507 419.822 43.389C420.917 43.206 422.04 43.325 423.152 43.315C429.331 43.54 437.09 43.423 443.277 43.439C445.062 43.329 446.937 43.6 448.648 42.979Z" fill="#6A7071"/>
<path fill-rule="evenodd" clip-rule="evenodd" d="M390.001 44.183C396.581 43.486 403.543 44.669 409.114 48.537C412.922 51.124 415.887 54.983 417.557 59.379C419.577 64.596 419.819 70.428 418.851 75.921C417.776 81.99 414.767 87.745 410.196 91.715C405.744 95.679 399.915 97.788 394.091 97.968C388.354 98.175 382.402 96.816 377.698 93.269C373.183 89.98 370.031 84.921 368.514 79.441C366.429 72.3 367.175 64.33 370.626 57.78C372.705 53.636 375.833 50.039 379.71 47.656C382.828 45.7 386.393 44.602 390.001 44.183ZM394.786 48.383V93.418C395.79 93.385 396.784 93.276 397.753 93.113V48.922C396.8 48.678 395.81 48.494 394.786 48.383ZM391.97 93.343V48.259C390.948 48.281 389.957 48.378 389.003 48.549V92.853C389.979 93.089 390.975 93.252 391.97 93.343ZM386.187 91.933V49.293C380.121 51.458 375.945 56.853 374.952 64.188C374.251 69.326 374.601 74.664 376.2 79.59C377.602 84.028 380.064 88.453 383.941 90.797C384.663 91.234 385.414 91.608 386.187 91.933ZM400.569 49.876V92.435C403.154 91.627 405.421 90.356 407.028 88.746C410.47 84.731 411.796 79.234 412.04 73.969C412.388 67.41 411.223 60.451 407.383 55.087C405.874 52.976 403.502 51.121 400.569 49.876Z" fill="#6A7071"/>
</g>
<defs>
<clipPath id="clip0_8_4">
<rect width="1000" height="122.919" fill="white"/>
</clipPath>
</defs>
</svg>
